<?xml version="1.0" standalone="no"?>
<!DOCTYPE svg PUBLIC "-//W3C//DTD SVG 20010904//EN"
 "http://www.w3.org/TR/2001/REC-SVG-20010904/DTD/svg10.dtd">
<svg version="1.0" xmlns="http://www.w3.org/2000/svg"
 width="300.000000pt" height="150.000000pt" viewBox="0 0 300.000000 150.000000"
 preserveAspectRatio="xMidYMid meet">
<metadata>
Created by potrace 1.10, written by Peter Selinger 2001-2011
</metadata>
<g transform="translate(0.000000,150.000000) scale(0.100000,-0.100000)"
fill="#000000" stroke="none">
<path d="M690 1486 c0 -7 7 -19 15 -26 11 -9 13 -27 9 -74 -4 -47 -3 -57 6
-43 6 9 8 22 5 28 -4 5 -2 15 3 22 5 7 12 24 14 39 4 21 1 29 -13 33 -11 4
-19 13 -19 21 0 8 -4 14 -10 14 -5 0 -10 -6 -10 -14z"/>
<path d="M1760 1490 c0 -5 5 -10 11 -10 5 0 7 5 4 10 -3 6 -8 10 -11 10 -2 0
-4 -4 -4 -10z"/>
<path d="M1990 1485 c0 -8 4 -15 10 -15 5 0 7 7 4 15 -4 8 -8 15 -10 15 -2 0
-4 -7 -4 -15z"/>
<path d="M2097 1295 c-85 -110 -154 -200 -153 -200 632 0 1056 7 1056 18 0 9
-108 11 -495 10 -271 -2 -496 1 -499 6 -5 8 5 22 59 84 9 9 32 41 53 71 43 62
97 129 132 167 l26 26 357 0 c196 0 360 3 364 6 3 4 -163 8 -370 9 l-376 3
-154 -200z"/>
<path d="M1927 1463 c-2 -5 -1 -17 3 -27 6 -19 7 -19 12 2 6 21 -6 40 -15 25z"/>
<path d="M1990 1445 c0 -8 2 -15 4 -15 2 0 6 7 10 15 3 8 1 15 -4 15 -6 0 -10
-7 -10 -15z"/>
<path d="M1750 1440 c0 -5 4 -10 9 -10 6 0 13 5 16 10 3 6 -1 10 -9 10 -9 0
-16 -4 -16 -10z"/>
<path d="M2308 1429 c-16 -11 -28 -25 -28 -31 0 -5 -6 -16 -14 -23 -10 -11
-13 -31 -9 -76 5 -48 3 -60 -6 -54 -8 4 -7 -4 3 -24 17 -32 43 -40 64 -19 8 8
15 8 26 -1 9 -8 27 -10 45 -6 17 4 36 3 42 -1 18 -11 97 -8 112 4 8 7 19 7 36
-2 15 -9 37 -10 63 -6 52 10 77 3 71 -19 -6 -24 22 -45 49 -37 13 3 34 21 47
41 26 39 35 42 57 21 21 -22 75 -12 102 19 24 29 27 47 12 75 -8 14 -7 26 2
40 11 19 10 24 -10 40 -17 14 -29 17 -51 10 -16 -4 -32 -6 -35 -3 -11 12 -53
-8 -64 -29 -7 -14 -11 -17 -11 -8 -1 8 -10 21 -20 27 -11 7 -21 24 -23 39 -4
39 -31 53 -57 30 -12 -11 -21 -29 -21 -41 0 -21 -3 -22 -36 -15 -20 5 -43 6
-50 3 -11 -4 -19 9 -12 20 7 10 -25 45 -39 42 -10 -2 -21 -4 -25 -4 -4 -1 -13
-13 -20 -28 -15 -32 -83 -54 -73 -24 15 49 -78 79 -127 40z m98 -13 c16 -12
17 -17 6 -28 -11 -11 -16 -10 -27 6 -16 22 -39 16 -55 -13 -10 -20 -8 -21 36
-21 36 0 45 -3 41 -14 -3 -8 -9 -42 -13 -75 -5 -44 -11 -61 -21 -61 -12 0 -13
12 -8 63 7 62 6 64 -17 63 -25 -1 -35 -24 -37 -88 -1 -31 -5 -38 -22 -38 -15
0 -19 5 -15 18 13 48 17 102 7 102 -6 0 -11 7 -11 15 0 8 7 15 15 15 8 0 15 9
15 19 0 23 36 51 65 51 12 0 30 -6 41 -14z m157 -2 c0 -5 -7 -53 -14 -106 -9
-66 -17 -98 -26 -98 -7 0 -13 5 -13 12 0 9 -3 9 -12 0 -7 -7 -24 -12 -38 -12
-14 0 -31 5 -38 12 -20 20 -14 82 10 113 18 23 26 26 60 22 37 -5 38 -4 38 27
0 18 3 36 7 40 9 8 28 1 26 -10z m187 9 c0 -12 -19 -143 -25 -180 -4 -21 -12
-33 -22 -33 -12 0 -14 7 -9 33 3 17 8 52 11 77 13 98 16 110 30 110 8 0 15 -3
15 -7z m-70 -82 c5 -11 10 -29 10 -40 0 -19 -6 -21 -55 -21 -58 0 -66 -8 -38
-35 11 -11 26 -15 45 -11 21 4 28 2 28 -9 0 -19 -80 -21 -98 -3 -19 19 -14 82
9 112 26 33 83 37 99 7z m115 -41 l11 -55 24 58 c16 40 29 57 42 57 15 0 12
-11 -22 -76 -56 -104 -61 -111 -87 -125 -35 -19 -41 -1 -8 25 29 23 29 23 17
77 -7 30 -15 65 -19 78 -5 19 -2 22 13 19 14 -2 21 -17 29 -58z m175 46 c0
-10 -9 -14 -26 -13 -36 3 -42 -20 -10 -34 59 -27 33 -93 -33 -87 -20 2 -34 8
-31 13 3 6 15 9 26 7 12 -1 26 4 32 11 9 11 5 19 -18 36 -34 25 -37 37 -13 63
20 22 73 25 73 4z"/>
<path d="M2457 1322 c-36 -39 -10 -105 32 -83 24 13 37 66 21 86 -17 20 -33
19 -53 -3z m31 -37 c-2 -27 -13 -33 -21 -12 -5 16 3 37 14 37 5 0 8 -11 7 -25z"/>
<path d="M2608 1329 c-29 -16 -21 -29 18 -29 28 0 35 3 32 17 -4 21 -26 27
-50 12z"/>
<path d="M1900 1430 c0 -5 5 -10 10 -10 6 0 10 5 10 10 0 6 -4 10 -10 10 -5 0
-10 -4 -10 -10z"/>
<path d="M863 1368 c-11 -13 -24 -34 -28 -48 -4 -14 -16 -33 -27 -44 -19 -18
-20 -18 -44 5 -20 19 -34 22 -87 21 -41 -1 -66 -7 -73 -16 -9 -13 -14 -12 -40
5 -23 15 -39 18 -79 13 -63 -8 -73 -17 -77 -62 l-4 -37 -17 40 c-41 97 -51
110 -83 113 -19 2 -35 -3 -46 -15 -16 -19 -78 -175 -78 -197 0 -10 -39 -36
-60 -41 -3 0 -16 -8 -30 -17 -14 -8 -38 -22 -54 -29 -35 -17 -47 -40 -17 -32
12 3 21 10 21 15 0 5 4 6 10 3 14 -9 50 13 50 30 0 8 5 15 10 15 6 0 10 -4 10
-10 0 -5 5 -10 10 -10 6 0 10 5 10 11 0 6 6 17 14 24 11 12 16 12 32 0 28 -21
52 -18 86 11 l31 25 26 -24 c30 -28 71 -44 71 -28 0 7 14 9 38 5 33 -5 39 -3
52 21 l14 26 13 -25 c14 -27 50 -35 69 -16 6 6 18 8 27 4 20 -7 23 -50 5 -57
-7 -2 11 -7 40 -11 105 -15 49 -26 -135 -26 -204 -1 -334 -8 -345 -19 -9 -8
10 -223 20 -233 4 -4 7 19 6 52 -1 33 0 60 3 60 15 0 43 -23 38 -31 -4 -5 -3
-9 2 -8 18 3 32 -2 45 -15 8 -7 53 -32 101 -56 100 -48 103 -56 65 -155 -25
-66 -23 -65 -148 -20 -86 32 -103 43 -96 62 3 7 1 13 -4 13 -18 0 -11 -57 8
-65 22 -9 448 -162 569 -205 51 -18 99 -38 108 -44 8 -6 33 -81 55 -166 23
-85 45 -159 50 -163 8 -9 -23 117 -60 243 -11 35 -18 66 -16 68 2 2 43 -11 91
-28 49 -17 90 -29 92 -27 2 2 -38 19 -89 37 -51 18 -98 38 -104 44 -6 6 -46
142 -89 301 -43 160 -83 307 -90 327 l-12 37 101 3 c55 2 110 -1 122 -5 16 -7
48 -85 154 -380 73 -205 154 -429 179 -499 40 -113 48 -128 68 -128 17 0 23 6
22 23 0 12 -3 16 -6 10 -2 -7 -9 -13 -13 -13 -13 0 -32 78 -24 92 4 6 3 8 -3
5 -11 -7 -43 56 -46 91 0 12 -5 22 -9 22 -4 0 -8 9 -8 20 0 11 -4 20 -10 20
-5 0 -10 6 -10 14 0 19 -89 258 -101 271 -5 5 -9 14 -9 21 0 8 40 -3 108 -30
59 -24 208 -83 332 -131 124 -48 229 -92 235 -96 5 -5 14 -9 20 -9 6 0 6 3 -1
8 -9 5 -204 642 -204 664 0 2 47 3 105 3 79 0 108 -4 119 -15 8 -8 70 -161
137 -340 67 -179 148 -392 179 -475 52 -138 59 -150 83 -153 24 -3 27 0 26 25
-1 17 -3 21 -6 11 -7 -29 -24 -20 -18 10 l5 27 -15 -30 -15 -30 6 39 c5 26 3
37 -4 32 -6 -3 -13 6 -17 24 -4 16 -11 30 -16 30 -5 0 -9 8 -9 18 0 10 -9 35
-19 56 -11 21 -23 51 -26 67 -4 16 -11 29 -16 29 -6 0 -8 4 -5 9 5 8 -40 129
-64 173 -5 9 -12 40 -16 70 -4 37 -14 60 -30 76 -29 28 -31 42 -4 42 26 0 25
13 -2 25 -23 11 -67 88 -68 119 0 31 -69 164 -88 170 -40 12 -437 3 -451 -10
-2 -2 45 -4 105 -4 l109 0 18 -67 c10 -38 23 -86 30 -108 6 -22 11 -44 12 -50
0 -5 2 -12 5 -15 3 -3 16 -43 29 -90 13 -47 35 -118 47 -159 13 -41 21 -78 18
-82 -3 -5 -1 -9 4 -9 5 0 12 -9 15 -20 4 -15 1 -19 -14 -17 -10 2 -21 6 -25 9
-3 4 -12 4 -20 1 -8 -3 -14 0 -14 7 0 6 -5 8 -10 5 -6 -4 -19 13 -30 37 -17
36 -18 23 -3 -20 11 -27 -8 -10 -22 21 l-14 32 5 -30 c4 -20 3 -26 -4 -17 -5
8 -13 13 -18 12 -5 -1 -12 9 -15 22 l-6 23 -5 -25 -5 -25 -2 25 c-2 23 -3 24
-11 5 -9 -20 -9 -20 -9 0 -1 17 -3 17 -11 5 -8 -12 -10 -12 -10 5 0 15 -2 17
-9 6 -7 -11 -13 -11 -32 0 -13 7 -31 14 -39 15 -27 5 -100 36 -100 43 0 4 -8
7 -17 8 -21 2 -205 71 -215 81 -9 9 -41 301 -36 338 l3 29 90 6 90 5 -87 2
c-50 1 -89 -2 -93 -8 -4 -6 -10 -8 -15 -5 -13 8 -17 -25 -8 -65 10 -47 10
-132 -1 -126 -12 8 -61 151 -64 186 -1 17 -6 30 -11 30 -5 0 -18 7 -28 16 -10
9 -37 18 -60 20 -24 2 -50 4 -58 4 -8 1 -35 -1 -60 -5 -59 -8 -130 3 -136 20
-3 8 4 24 15 36 19 21 22 21 39 6 27 -25 68 -22 75 4 l6 21 27 -21 c38 -30
107 -29 138 2 l23 23 27 -23 c15 -13 37 -24 49 -24 77 -4 102 12 123 77 15 49
15 54 -2 83 -36 62 -121 76 -170 30 l-22 -21 -30 22 c-29 22 -29 23 -14 50 14
23 14 31 3 44 -19 23 -54 20 -78 -6z m47 -38 c-18 -25 -60 -42 -60 -25 0 21
36 55 57 55 l24 0 -21 -30z m-547 -98 c21 -55 37 -104 37 -110 0 -23 -40 -12
-52 13 -9 20 -18 25 -48 25 -30 0 -39 -5 -48 -25 -14 -31 -69 -38 -57 -7 4 9
23 59 42 110 33 85 38 92 63 92 25 0 30 -7 63 -98z m200 31 c13 -12 17 -32 17
-85 0 -66 -1 -68 -25 -68 -24 0 -25 3 -25 60 0 46 -4 62 -16 67 -23 9 -34 -15
-34 -74 0 -50 -2 -53 -25 -53 -25 0 -25 1 -25 84 l0 85 58 0 c38 0 63 -6 75
-16z m185 4 c6 -7 12 -44 13 -82 2 -65 1 -70 -19 -73 -20 -3 -22 1 -22 46 0
59 -7 82 -26 82 -21 0 -36 -37 -32 -83 2 -37 0 -42 -20 -45 -21 -3 -22 -1 -22
81 l0 84 59 1 c35 1 64 -4 69 -11z m191 -4 c11 -10 24 -33 27 -51 l7 -34 -67
4 c-65 3 -77 -4 -43 -26 12 -8 23 -7 37 2 16 10 25 10 42 1 l22 -12 -23 -18
c-55 -45 -145 -5 -145 64 0 73 87 115 143 70z m195 -4 c18 -14 26 -30 26 -51
l0 -30 -60 4 c-62 3 -71 -1 -45 -22 11 -9 22 -10 38 -3 12 5 30 7 40 5 50 -11
-17 -57 -71 -49 -46 8 -72 38 -72 84 0 72 85 109 144 62z m-621 -94 c-7 -21
-13 -19 -13 6 0 11 4 18 10 14 5 -3 7 -12 3 -20z m14 -177 c-2 -7 -7 -24 -11
-38 -6 -21 -4 -20 13 8 11 17 26 32 32 32 8 0 6 -7 -5 -18 -15 -18 -18 -65 -3
-88 3 -6 5 -24 5 -42 -2 -64 53 -100 109 -71 20 11 20 14 9 48 -7 20 -16 57
-20 82 -4 25 -16 56 -26 67 -11 12 -20 23 -20 26 0 2 23 4 50 4 28 1 50 -1 50
-4 0 -4 53 -200 96 -359 39 -139 52 -204 47 -228 -4 -18 -3 -19 7 -7 8 10 10
11 8 2 -6 -24 -23 -16 -42 22 -10 20 -20 35 -23 32 -2 -2 0 -13 6 -24 6 -12
11 -27 10 -34 0 -7 -9 5 -19 27 -22 46 -24 59 -10 50 6 -4 5 5 -2 20 -7 16
-14 21 -18 14 -5 -7 -9 -5 -14 6 -3 9 -4 21 -1 25 3 5 -2 7 -11 6 -18 -3 -39
-34 -30 -43 3 -4 6 0 6 8 0 11 2 11 10 -1 9 -13 10 -13 10 0 1 9 6 5 15 -10
20 -34 19 -62 -1 -30 -8 14 -13 17 -10 7 3 -10 6 -23 6 -28 0 -6 8 -9 18 -7
12 2 18 -5 20 -22 3 -21 2 -22 -12 -11 -9 7 -16 10 -16 7 0 -19 -41 19 -50 47
-9 28 -9 29 -6 5 2 -16 -1 -28 -5 -28 -5 0 -9 10 -10 23 0 21 -1 21 -9 2 -8
-18 -9 -18 -10 5 l-2 25 -8 -25 -8 -25 -2 25 c-1 23 -2 23 -10 5 -7 -17 -9
-16 -10 10 -2 30 -2 30 -10 5 -7 -21 -8 -22 -9 -5 -1 17 -3 18 -11 5 -9 -13
-11 -13 -20 0 -5 8 -10 11 -10 7 0 -4 -10 -2 -22 5 -13 7 -27 13 -33 14 -5 0
-13 2 -17 4 -5 1 -17 4 -28 5 -11 1 -22 3 -24 4 -2 0 9 34 25 74 15 39 28 86
29 104 0 29 -4 33 -55 52 -75 28 -162 73 -213 110 -34 25 -41 35 -33 49 5 10
6 24 1 33 -5 8 -6 19 -2 25 9 13 105 13 114 -1 5 -6 8 -4 9 5 0 10 3 8 9 -5 6
-14 9 -15 9 -5 1 16 41 23 41 7 0 -4 4 -6 9 -2 5 3 35 7 66 10 32 2 60 6 63
10 9 9 14 5 9 -7z m98 -38 c10 -11 15 -23 11 -27 -4 -5 -12 0 -17 10 -11 19
-49 24 -49 6 0 -6 7 -9 15 -5 8 3 15 1 15 -4 0 -5 9 -12 20 -15 11 -3 20 -15
20 -26 0 -15 -7 -19 -34 -19 -38 0 -55 15 -37 33 7 7 5 14 -7 24 -16 12 -16
14 2 28 26 20 39 19 61 -5z m-2 -97 c-44 -6 -42 -23 2 -23 30 0 35 -3 35 -24
0 -27 -18 -37 -48 -29 -21 5 -36 29 -27 43 3 5 1 11 -5 15 -23 14 -8 25 33 23
36 -1 38 -2 10 -5z m471 -99 c3 -9 6 -23 6 -32 -1 -15 -3 -14 -15 2 -17 22
-20 46 -6 46 5 0 12 -7 15 -16z"/>
<path d="M290 1248 c0 -9 -3 -23 -6 -32 -4 -12 0 -16 16 -16 18 0 20 4 15 23
-10 30 -25 46 -25 25z"/>
<path d="M855 1230 c-4 -6 8 -10 30 -10 22 0 34 4 30 10 -3 6 -17 10 -30 10
-13 0 -27 -4 -30 -10z"/>
<path d="M1045 1230 c-4 -6 8 -10 30 -10 22 0 34 4 30 10 -3 6 -17 10 -30 10
-13 0 -27 -4 -30 -10z"/>
<path d="M210 949 c9 -17 32 -20 46 -6 4 3 -3 4 -16 2 -15 -3 -20 0 -17 9 3 7
-1 13 -8 13 -10 0 -11 -5 -5 -18z"/>
<path d="M271 943 c-10 -26 -10 -27 4 -9 8 11 15 23 15 28 0 15 -7 8 -19 -19z"/>
<path d="M296 943 c-6 -14 -5 -15 5 -6 7 7 10 15 7 18 -3 3 -9 -2 -12 -12z"/>
<path d="M405 939 c-4 -6 -5 -12 -2 -15 2 -3 7 2 10 11 7 17 1 20 -8 4z"/>
<path d="M490 886 c-6 -19 -12 -54 -13 -77 l-2 -43 82 -41 c45 -22 105 -60
135 -84 53 -44 53 -44 13 -4 -55 54 -101 87 -162 118 -47 23 -53 29 -53 58 0
18 4 48 10 66 13 46 5 52 -10 7z"/>
<path d="M432 803 c-6 -2 -10 -9 -6 -14 8 -14 21 -11 21 6 0 8 -1 15 -1 14 -1
0 -7 -3 -14 -6z"/>
<path d="M536 702 c-3 -4 4 -9 15 -9 23 -2 25 3 4 10 -8 4 -16 3 -19 -1z"/>
<path d="M695 583 c3 -7 -1 -23 -9 -35 -9 -12 -16 -29 -16 -38 1 -8 7 0 15 18
8 18 19 31 24 28 5 -4 13 -1 17 6 4 7 4 10 -1 6 -4 -4 -14 0 -22 10 -8 9 -12
11 -8 5z"/>
<path d="M760 563 c13 -18 25 -33 27 -33 8 0 -17 38 -33 51 -11 9 -9 2 6 -18z"/>
<path d="M651 524 c0 -11 3 -14 6 -6 3 7 2 16 -1 19 -3 4 -6 -2 -5 -13z"/>
<path d="M800 500 c6 -11 12 -20 14 -20 2 0 2 9 -1 20 -3 11 -9 20 -15 20 -5
0 -4 -9 2 -20z"/>
<path d="M721 480 c0 -8 4 -22 9 -30 12 -18 12 -2 0 25 -6 13 -9 15 -9 5z"/>
<path d="M580 890 c0 -5 11 -10 25 -10 14 0 25 5 25 10 0 6 -11 10 -25 10 -14
0 -25 -4 -25 -10z"/>
<path d="M600 800 c0 -5 11 -10 25 -10 14 0 25 5 25 10 0 6 -11 10 -25 10 -14
0 -25 -4 -25 -10z"/>
<path d="M1229 1331 c-46 -47 -31 -99 26 -89 34 7 32 -2 -15 -47 -43 -42 -54
-88 -24 -99 33 -13 151 -6 164 9 10 12 17 12 48 -5 36 -20 56 -19 100 2 17 9
25 9 34 0 8 -8 62 -12 168 -12 139 0 159 2 173 18 22 24 21 31 -3 57 -19 21
-19 21 1 63 19 37 20 46 9 73 -7 16 -22 36 -34 44 -29 21 -89 19 -117 -4 -24
-19 -25 -19 -48 0 -31 26 -91 25 -125 -2 l-26 -20 -26 20 c-36 28 -97 28 -123
0 l-20 -21 -27 21 c-41 32 -98 28 -135 -8z m121 -11 c34 -34 24 -86 -28 -142
l-25 -27 36 6 c35 5 37 4 37 -21 0 -26 -1 -26 -75 -26 -65 0 -75 2 -75 18 0
10 23 40 50 67 49 48 63 86 38 101 -6 4 -19 -2 -29 -14 -9 -12 -27 -22 -39
-22 -17 0 -20 4 -15 23 16 54 87 75 125 37z m171 1 c21 -17 24 -27 24 -94 0
-88 -17 -117 -70 -117 -43 0 -64 19 -75 65 -27 118 47 206 121 146z m179 -1
c11 -11 20 -32 20 -47 0 -27 -45 -103 -61 -103 -5 0 -9 -4 -9 -8 0 -4 16 -6
35 -4 32 4 35 2 35 -22 0 -26 -1 -26 -74 -26 -42 0 -78 5 -81 11 -4 5 18 37
49 69 31 32 56 67 56 78 0 28 -28 36 -42 12 -15 -24 -58 -27 -58 -5 0 9 11 27
25 40 30 31 77 33 105 5z m170 0 c30 -30 25 -72 -13 -122 l-33 -44 33 4 c30 4
33 2 33 -22 0 -26 -1 -26 -75 -26 -93 0 -96 11 -25 86 49 52 62 86 38 100 -6
4 -19 -2 -29 -14 -20 -25 -59 -30 -59 -7 0 9 11 27 25 40 30 31 77 33 105 5z
m-260 -105 c-29 -31 -42 -32 -38 -3 2 14 12 25 28 28 35 9 37 4 10 -25z m157
-12 c-27 -27 -40 -34 -48 -26 -17 17 17 61 49 65 40 5 40 1 -1 -39z"/>
<path d="M1460 1290 c-19 -11 -21 -113 -3 -131 23 -23 43 8 43 66 0 56 -15 80
-40 65z m17 -72 c-3 -8 -6 -5 -6 6 -1 11 2 17 5 13 3 -3 4 -12 1 -19z"/>
<path d="M780 1076 c0 -2 7 -6 15 -10 8 -3 15 -1 15 4 0 6 -7 10 -15 10 -8 0
-15 -2 -15 -4z"/>
<path d="M2675 1060 c3 -5 0 -10 -8 -10 -10 0 -13 -7 -10 -19 5 -18 6 -18 24
-3 23 20 25 42 3 42 -8 0 -12 -4 -9 -10z"/>
<path d="M2724 1059 c-3 -6 0 -15 7 -20 13 -7 28 5 29 24 0 11 -28 8 -36 -4z"/>
<path d="M2770 1059 c0 -5 5 -7 10 -4 6 3 10 8 10 11 0 2 -4 4 -10 4 -5 0 -10
-5 -10 -11z"/>
<path d="M2510 1020 c0 -5 5 -10 11 -10 5 0 7 5 4 10 -3 6 -8 10 -11 10 -2 0
-4 -4 -4 -10z"/>
<path d="M2580 1009 c0 -6 -25 -9 -67 -8 -44 2 -68 -2 -71 -9 -3 -9 21 -12 81
-12 56 0 88 -4 94 -12 5 -7 34 -73 63 -147 l53 -133 34 5 c18 3 33 1 33 -4 0
-6 7 -6 18 -1 23 13 51 1 94 -41 20 -19 38 -33 41 -31 2 3 10 -2 17 -11 16
-19 30 -19 30 1 0 8 -4 13 -8 10 -4 -2 -36 18 -71 45 -66 51 -72 53 -134 50
-36 -3 -38 -1 -63 54 -15 32 -27 71 -28 87 -1 16 -9 34 -19 39 -9 6 -17 18
-17 28 0 11 -13 33 -30 51 -16 18 -30 36 -30 41 0 5 -4 9 -10 9 -5 0 -10 -5
-10 -11z"/>
<path d="M100 996 c0 -9 5 -14 10 -11 6 3 10 -1 10 -9 0 -9 5 -16 10 -16 16 0
12 15 -10 35 -19 17 -20 17 -20 1z"/>
<path d="M1288 993 c7 -3 16 -2 19 1 4 3 -2 6 -13 5 -11 0 -14 -3 -6 -6z"/>
<path d="M2714 992 c3 -6 0 -12 -6 -15 -7 -2 -10 -7 -7 -11 9 -10 40 5 36 17
-2 6 -9 13 -17 15 -7 3 -10 0 -6 -6z"/>
<path d="M45 980 c3 -5 10 -10 16 -10 5 0 9 5 9 10 0 6 -7 10 -16 10 -8 0 -12
-4 -9 -10z"/>
<path d="M1015 980 c3 -5 8 -10 11 -10 2 0 4 5 4 10 0 6 -5 10 -11 10 -5 0 -7
-4 -4 -10z"/>
<path d="M7 973 c-4 -3 -7 -11 -7 -17 0 -6 5 -5 12 2 6 6 9 14 7 17 -3 3 -9 2
-12 -2z"/>
<path d="M2020 970 c-12 -8 -9 -10 12 -7 15 1 30 6 34 10 11 11 -29 8 -46 -3z"/>
<path d="M2080 973 c0 -5 64 -8 143 -8 171 0 201 -4 206 -30 2 -11 32 -114 67
-229 35 -115 64 -213 64 -219 0 -5 -8 -3 -17 4 -16 13 -17 12 -4 -3 7 -10 18
-15 23 -12 5 3 8 -2 7 -12 -2 -11 0 -24 4 -31 4 -6 3 -14 -2 -18 -6 -3 -17 7
-26 22 -10 17 -14 20 -11 8 6 -19 5 -19 -8 -2 -10 13 -15 14 -18 6 -3 -9 -11
-6 -25 8 -15 15 -23 18 -27 10 -2 -7 -5 -3 -5 8 -1 17 -3 18 -12 5 -8 -12 -10
-10 -5 10 5 24 4 24 -9 6 -8 -11 -15 -14 -15 -8 0 7 -3 11 -7 10 -9 -1 -37 10
-107 42 -25 11 -52 20 -60 20 -10 0 -13 6 -10 15 4 11 2 13 -9 9 -8 -3 -39 6
-69 20 -29 14 -65 29 -80 35 -15 6 -29 20 -31 33 -4 16 -5 14 -4 -7 2 -29 8
-33 285 -156 156 -69 287 -130 290 -135 4 -5 14 -10 22 -12 8 -2 39 -14 69
-28 30 -13 56 -23 58 -20 2 2 -30 18 -72 37 -68 29 -76 36 -85 68 -6 20 -45
153 -88 296 l-78 260 -177 3 c-97 1 -177 -1 -177 -5z"/>
<path d="M810 955 c-7 -8 -9 -15 -6 -15 4 0 14 7 22 15 9 8 11 15 6 15 -5 0
-15 -7 -22 -15z"/>
<path d="M1460 955 c0 -5 4 -16 9 -23 6 -10 10 -10 21 3 15 19 40 3 40 -26 0
-10 4 -20 8 -23 5 -3 6 8 4 25 -5 33 -31 52 -52 39 -9 -6 -17 -5 -22 3 -4 7
-8 8 -8 2z"/>
<path d="M2299 947 c-12 -9 -13 -20 -6 -47 4 -19 12 -55 16 -80 5 -25 12 -53
16 -64 8 -17 7 -17 -24 -1 -18 9 -39 31 -46 48 l-14 32 -1 -32 c0 -28 6 -35
42 -54 44 -22 84 -49 128 -84 15 -11 12 -6 -7 12 -17 18 -28 35 -23 38 5 3 12
1 15 -5 5 -8 11 -7 21 1 7 6 11 15 8 20 -3 5 -12 34 -20 66 -8 31 -19 62 -24
68 -5 6 -7 20 -4 31 10 38 -45 75 -77 51z m59 -19 c20 -20 14 -38 -13 -38 -36
0 -31 -16 8 -25 l32 -7 -27 -11 c-29 -11 -35 -22 -19 -31 5 -3 11 1 15 9 5 15
36 10 36 -6 0 -4 -6 -6 -13 -3 -8 3 -20 -2 -27 -11 -12 -14 -11 -18 1 -26 19
-12 42 -11 34 1 -4 6 -11 8 -16 5 -5 -4 -9 -1 -9 5 0 6 8 10 18 8 10 -2 17
-13 17 -25 0 -12 4 -25 8 -29 4 -4 7 -14 7 -23 -1 -14 -2 -13 -11 2 -13 22
-39 22 -39 0 0 -13 -3 -14 -12 -5 -8 8 -8 15 2 27 7 9 8 15 2 15 -14 0 -36 66
-28 85 3 8 2 15 -3 15 -10 0 -23 59 -15 71 8 13 38 11 52 -3z"/>
<path d="M2316 923 c-12 -12 -5 -23 14 -23 11 0 20 4 20 9 0 11 -26 22 -34 14z"/>
<path d="M830 938 c0 -7 4 -19 9 -27 5 -7 5 -28 1 -47 -4 -19 -7 -34 -5 -34 1
0 23 20 47 44 31 30 42 48 37 58 -10 18 -89 24 -89 6z m70 -8 c12 -8 10 -14
-14 -39 -29 -31 -50 -35 -26 -6 9 11 10 18 1 28 -19 24 9 36 39 17z"/>
<path d="M1710 935 c-11 -13 -10 -15 1 -10 15 6 19 -6 20 -77 1 -21 6 -38 11
-38 6 0 8 9 5 20 -3 11 -1 23 4 26 5 3 6 16 3 30 -5 20 -2 24 14 24 32 0 36
-19 11 -48 l-24 -27 30 25 c17 14 32 26 34 27 12 6 -29 39 -54 41 -16 2 -32 8
-36 13 -3 6 -11 3 -19 -6z"/>
<path d="M1447 910 c3 -19 13 -65 22 -101 14 -59 18 -65 36 -58 15 6 16 8 4 8
-16 1 -29 20 -29 42 0 5 15 9 33 10 l32 1 -35 12 c-19 6 -37 18 -38 26 -2 8
-6 26 -9 39 -2 14 -8 32 -13 40 -7 11 -8 5 -3 -19z"/>
<path d="M2507 933 c-11 -10 -8 -25 3 -18 6 3 11 -2 12 -12 1 -10 2 -25 4 -33
1 -8 3 -24 4 -35 2 -17 3 -16 10 5 4 14 5 35 3 48 -5 23 3 27 26 13 13 -8 13
-12 0 -28 -13 -17 -13 -17 4 -4 24 19 18 43 -13 48 -14 2 -26 8 -28 13 -4 12
-16 13 -25 3z"/>
<path d="M80 921 c0 -6 4 -13 10 -16 6 -3 7 1 4 9 -7 18 -14 21 -14 7z"/>
<path d="M1495 920 c-3 -5 1 -10 10 -10 9 0 13 5 10 10 -3 6 -8 10 -10 10 -2
0 -7 -4 -10 -10z"/>
<path d="M1406 903 c-6 -14 -5 -15 5 -6 7 7 10 15 7 18 -3 3 -9 -2 -12 -12z"/>
<path d="M2730 893 c0 -5 9 -16 19 -25 18 -15 19 -15 24 3 3 10 1 19 -3 19 -5
0 -15 3 -24 6 -9 3 -16 2 -16 -3z"/>
<path d="M1480 865 c0 -8 6 -15 13 -14 17 1 54 17 42 19 -5 1 -20 3 -32 6 -16
3 -23 -1 -23 -11z"/>
<path d="M1391 844 c0 -11 3 -14 6 -6 3 7 2 16 -1 19 -3 4 -6 -2 -5 -13z"/>
<path d="M1538 853 c-22 -5 -24 -23 -3 -23 15 0 40 -73 31 -89 -3 -5 -16 -6
-30 -4 -13 3 -27 0 -30 -6 -4 -6 7 -9 31 -8 37 2 38 3 39 40 1 20 -5 48 -12
61 -6 14 -10 27 -6 30 3 3 3 5 1 5 -2 -1 -12 -3 -21 -6z"/>
<path d="M896 835 c-3 -8 -2 -15 3 -15 5 0 11 -8 14 -17 2 -10 8 -27 13 -37 6
-15 4 -17 -6 -11 -7 5 -5 -4 6 -18 10 -15 29 -27 42 -27 24 0 27 7 12 30 -7
11 -10 11 -10 2 0 -10 -3 -10 -14 0 -8 7 -12 16 -9 21 2 4 -3 14 -12 23 -9 9
-14 23 -11 30 3 8 0 14 -7 15 -7 1 -1 5 13 9 l25 8 -26 1 c-15 1 -29 -5 -33
-14z"/>
<path d="M2011 824 c0 -11 3 -14 6 -6 3 7 2 16 -1 19 -3 4 -6 -2 -5 -13z"/>
<path d="M1790 816 c-12 -12 -13 -29 -1 -22 11 7 33 -52 25 -65 -3 -5 -1 -9 4
-9 5 0 12 -8 14 -18 3 -10 15 -18 26 -19 16 -1 22 4 22 20 0 14 -3 18 -8 10
-10 -15 -26 -4 -30 22 -2 11 -10 27 -18 36 -18 20 -18 39 1 39 8 0 15 4 15 8
0 11 -38 10 -50 -2z"/>
<path d="M2577 824 c-3 -3 -2 -14 3 -23 5 -9 16 -33 24 -53 10 -27 21 -38 35
-38 14 0 19 5 15 14 -3 8 -12 12 -20 9 -9 -3 -14 2 -14 15 0 12 -4 24 -10 27
-14 9 -12 42 3 48 6 3 3 6 -9 6 -11 1 -23 -2 -27 -5z"/>
<path d="M2830 820 c0 -5 5 -10 10 -10 6 0 10 5 10 10 0 6 -4 10 -10 10 -5 0
-10 -4 -10 -10z"/>
<path d="M1381 788 c-1 -37 0 -38 77 -77 44 -22 94 -52 113 -66 19 -15 14 -8
-11 14 -42 38 -126 88 -142 84 -11 -4 -26 21 -31 52 -4 27 -4 27 -6 -7z"/>
<path d="M2130 801 c29 -23 53 -36 94 -51 27 -10 28 -13 23 -58 -3 -26 -8 -58
-11 -72 -3 -14 3 0 14 30 29 85 29 85 -62 130 -46 23 -72 32 -58 21z"/>
<path d="M865 789 c-20 -8 -20 -8 0 -8 14 -1 16 -4 7 -9 -16 -11 -7 -36 24
-70 26 -28 29 -26 14 13 -5 14 -12 37 -14 51 -6 33 -7 33 -31 23z"/>
<path d="M1234 792 c2 -4 37 -23 78 -42 40 -19 76 -39 79 -44 7 -9 6 -30 -5
-81 -6 -28 -5 -27 8 5 8 19 15 48 15 63 1 25 -6 31 -66 57 -38 17 -76 34 -85
40 -21 12 -31 13 -24 2z"/>
<path d="M1500 791 c0 -14 25 -20 41 -11 7 5 10 12 6 17 -5 4 -12 1 -17 -7 -7
-10 -10 -11 -10 -2 0 6 -4 12 -10 12 -5 0 -10 -4 -10 -9z"/>
<path d="M2550 780 c-8 -6 -10 -10 -5 -10 6 0 12 -10 13 -22 1 -13 10 -48 20
-79 15 -48 20 -55 36 -49 18 6 18 7 -5 23 -15 11 -18 17 -9 17 13 0 13 2 1 9
-7 5 -10 14 -7 20 4 6 3 11 -3 11 -5 0 -8 9 -6 20 2 13 -2 23 -11 27 -10 3
-12 8 -5 12 5 4 7 12 3 18 -5 8 -13 9 -22 3z"/>
<path d="M1764 761 c17 -7 18 -8 3 -14 -15 -5 -15 -10 -3 -39 8 -18 15 -36 15
-40 2 -10 9 -33 18 -55 3 -10 5 -21 5 -25 -1 -5 7 -8 18 -8 27 0 25 28 -2 40
-21 8 -21 9 -3 10 20 1 20 1 1 15 -11 8 -15 15 -8 15 15 0 -5 49 -27 68 -9 7
-10 12 -3 12 7 0 12 7 12 15 0 9 -9 15 -22 14 -21 0 -21 -1 -4 -8z"/>
<path d="M173 725 c0 -22 2 -30 4 -17 2 12 2 30 0 40 -3 9 -5 -1 -4 -23z"/>
<path d="M886 680 c8 -44 10 -46 29 -26 13 13 14 16 2 16 -8 0 -19 10 -25 23
-11 19 -11 18 -6 -13z"/>
<path d="M950 681 c13 -26 13 -34 -2 -26 -7 4 -6 1 2 -7 9 -7 21 -32 28 -55
11 -36 17 -43 37 -43 14 0 25 5 25 10 0 6 -8 10 -19 10 -11 0 -21 9 -25 23 -9
33 -8 37 12 37 12 0 10 4 -8 13 -30 15 -38 44 -13 50 10 3 3 5 -15 6 -29 1
-32 -1 -22 -18z"/>
<path d="M2626 685 c4 -8 10 -15 16 -15 5 0 7 4 4 9 -4 5 0 12 6 14 7 3 3 6
-9 6 -16 1 -21 -3 -17 -14z"/>
<path d="M70 658 c0 -4 4 -8 9 -8 6 0 12 4 15 8 3 5 -1 9 -9 9 -8 0 -15 -4
-15 -9z"/>
<path d="M155 660 c-16 -7 -17 -9 -3 -9 9 -1 20 4 23 9 7 11 7 11 -20 0z"/>
<path d="M1846 655 c4 -8 10 -15 16 -15 5 0 7 4 3 9 -3 5 3 12 12 14 11 3 8 5
-9 6 -20 1 -26 -3 -22 -14z"/>
<path d="M2650 613 c12 -34 24 -49 39 -51 12 -2 21 1 21 7 0 6 -7 11 -15 11
-22 0 -43 49 -26 59 10 6 9 10 -4 15 -31 12 -33 6 -15 -41z"/>
<path d="M2790 650 c0 -5 5 -10 10 -10 6 0 10 5 10 10 0 6 -4 10 -10 10 -5 0
-10 -4 -10 -10z"/>
<path d="M48 633 c-21 -5 -24 -23 -4 -23 8 0 16 7 20 15 3 8 4 14 3 14 -1 -1
-10 -3 -19 -6z"/>
<path d="M2752 632 c2 -4 14 -35 28 -69 21 -52 28 -62 44 -57 13 4 16 3 11 -7
-6 -9 -4 -11 8 -6 9 3 18 1 20 -6 3 -8 10 -7 24 6 11 9 30 17 43 17 19 0 20 3
10 15 -10 12 -15 12 -35 -1 -13 -9 -34 -14 -47 -12 -22 3 -21 5 12 26 19 12
29 22 22 22 -8 0 -27 -9 -43 -21 -45 -32 -37 0 13 51 24 24 33 38 21 32 -12
-7 -31 -24 -42 -38 -12 -15 -21 -23 -21 -18 0 5 -4 3 -9 -5 -7 -10 -14 -2 -29
33 -12 25 -24 46 -27 46 -4 0 -5 -3 -3 -8z"/>
<path d="M900 616 c0 -9 7 -12 20 -9 11 3 20 9 20 14 0 5 -9 9 -20 9 -11 0
-20 -6 -20 -14z"/>
<path d="M1847 624 c6 -3 19 -27 28 -55 14 -41 21 -49 41 -49 13 0 24 5 24 10
0 6 -8 10 -19 10 -11 0 -21 9 -25 23 -9 33 -7 49 4 42 6 -3 10 -2 10 3 0 5
-10 12 -22 16 -27 7 -59 7 -41 0z"/>
<path d="M110 600 c0 -5 5 -10 11 -10 5 0 7 5 4 10 -3 6 -8 10 -11 10 -2 0 -4
-4 -4 -10z"/>
<path d="M140 601 c0 -5 8 -8 18 -7 14 1 18 -9 20 -56 3 -48 0 -57 -16 -62
-36 -12 -104 -91 -133 -153 -32 -69 -33 -73 -20 -73 5 0 11 14 15 32 9 47 64
126 109 159 46 34 57 36 57 12 0 -10 -16 -31 -35 -46 -36 -29 -95 -120 -95
-147 0 -8 9 4 19 26 20 43 86 124 102 124 5 0 9 -29 9 -65 0 -57 -2 -65 -19
-65 -10 0 -32 -7 -47 -15 -16 -8 -22 -15 -13 -15 9 0 19 3 23 7 13 14 47 9 56
-7 12 -23 22 -130 12 -130 -4 0 -13 5 -20 12 -9 9 -12 8 -12 -6 0 -9 4 -15 9
-11 12 7 22 -9 31 -51 8 -35 2 -42 -17 -23 -6 6 -28 13 -49 14 l-39 4 37 -12
c57 -19 53 -23 -23 -22 -53 1 -74 5 -83 17 -8 11 -17 14 -26 8 -10 -6 -9 -9 6
-13 16 -4 17 -5 2 -6 -10 0 -18 -5 -18 -11 0 -6 45 -10 115 -10 l116 0 -7 118
c-6 89 -11 120 -23 129 -13 10 -13 12 -2 13 12 0 13 25 7 148 -9 180 -10 187
-42 190 -13 1 -24 -2 -24 -7z"/>
<path d="M1625 590 c10 -11 20 -20 23 -20 3 0 -3 9 -13 20 -10 11 -20 20 -23
20 -3 0 3 -9 13 -20z"/>
<path d="M2909 579 c-11 -7 -11 -9 4 -9 9 0 17 -4 17 -8 0 -5 9 -20 21 -33 17
-19 22 -21 29 -9 9 15 -7 33 -22 24 -4 -3 -8 0 -8 6 0 20 -26 39 -41 29z"/>
<path d="M2506 547 c3 -10 9 -15 12 -12 3 3 0 11 -7 18 -10 9 -11 8 -5 -6z"/>
<path d="M60 540 c0 -6 7 -10 15 -10 8 0 15 2 15 4 0 2 -7 6 -15 10 -8 3 -15
1 -15 -4z"/>
<path d="M2197 490 c-9 -24 -15 -45 -12 -48 6 -6 36 70 32 81 -1 5 -11 -10
-20 -33z"/>
<path d="M2455 519 c-4 -6 -5 -12 -2 -15 2 -3 7 2 10 11 7 17 1 20 -8 4z"/>
<path d="M1606 505 c-9 -26 -7 -32 5 -12 6 10 9 21 6 23 -2 3 -7 -2 -11 -11z"/>
<path d="M1328 443 c-12 -27 -23 -51 -25 -55 -2 -5 -2 -8 1 -8 6 0 32 47 46
85 16 43 1 27 -22 -22z"/>
<path d="M1702 445 c12 -24 23 -43 26 -41 4 5 -36 86 -43 86 -3 0 5 -20 17
-45z"/>
<path d="M349 333 c-40 -81 -75 -151 -77 -155 -2 -5 1 -8 8 -8 6 0 8 5 5 10
-8 13 1 13 28 -1 20 -9 20 -9 5 4 -19 15 -18 45 3 61 8 6 16 20 17 31 2 11 10
27 17 35 8 8 13 17 13 20 -2 11 42 99 56 113 8 7 11 19 7 26 -5 7 -37 -46 -82
-136z"/>
<path d="M2830 433 c11 -27 54 -131 95 -233 65 -158 75 -178 72 -136 -3 27 -9
51 -14 55 -14 10 -34 62 -27 72 3 5 -2 12 -11 15 -8 4 -14 11 -13 18 1 6 -8
30 -20 54 -12 23 -18 42 -14 42 13 0 62 -47 62 -59 0 -5 9 -9 20 -8 25 2 26
17 1 17 -10 0 -21 7 -25 15 -4 11 1 15 19 15 16 0 25 6 25 15 0 14 -13 20 -35
15 -25 -4 -75 12 -75 25 0 8 -5 15 -11 15 -5 0 -21 25 -34 55 -30 67 -42 74
-15 8z"/>
<path d="M1611 444 c0 -11 3 -14 6 -6 3 7 2 16 -1 19 -3 4 -6 -2 -5 -13z"/>
<path d="M1680 445 c0 -5 5 -17 10 -25 5 -8 10 -10 10 -5 0 6 -5 17 -10 25 -5
8 -10 11 -10 5z"/>
<path d="M2362 420 c0 -19 2 -27 5 -17 2 9 2 25 0 35 -3 9 -5 1 -5 -18z"/>
<path d="M2383 405 c0 -22 2 -30 4 -17 2 12 2 30 0 40 -3 9 -5 -1 -4 -23z"/>
<path d="M591 414 c0 -11 3 -14 6 -6 3 7 2 16 -1 19 -3 4 -6 -2 -5 -13z"/>
<path d="M2166 415 c-9 -26 -7 -32 5 -12 6 10 9 21 6 23 -2 3 -7 -2 -11 -11z"/>
<path d="M2403 350 c0 -47 2 -66 4 -42 2 23 2 61 0 85 -2 23 -4 4 -4 -43z"/>
<path d="M612 400 c0 -14 2 -19 5 -12 2 6 2 18 0 25 -3 6 -5 1 -5 -13z"/>
<path d="M633 370 c0 -30 2 -43 4 -27 2 15 2 39 0 55 -2 15 -4 2 -4 -28z"/>
<path d="M2343 385 c0 -22 2 -30 4 -17 2 12 2 30 0 40 -3 9 -5 -1 -4 -23z"/>
<path d="M2441 404 c0 -11 3 -14 6 -6 3 7 2 16 -1 19 -3 4 -6 -2 -5 -13z"/>
<path d="M653 330 c0 -41 2 -58 4 -37 2 20 2 54 0 75 -2 20 -4 3 -4 -38z"/>
<path d="M701 384 c0 -11 3 -14 6 -6 3 7 2 16 -1 19 -3 4 -6 -2 -5 -13z"/>
<path d="M2491 384 c0 -11 3 -14 6 -6 3 7 2 16 -1 19 -3 4 -6 -2 -5 -13z"/>
<path d="M684 305 c0 -50 1 -71 3 -48 2 23 2 64 0 90 -2 26 -3 8 -3 -42z"/>
<path d="M1594 240 c0 -85 2 -120 3 -77 2 42 2 112 0 155 -1 42 -3 7 -3 -78z"/>
<path d="M2422 365 c0 -16 2 -22 5 -12 2 9 2 23 0 30 -3 6 -5 -1 -5 -18z"/>
<path d="M2471 364 c0 -11 3 -14 6 -6 3 7 2 16 -1 19 -3 4 -6 -2 -5 -13z"/>
<path d="M541 354 c0 -11 3 -14 6 -6 3 7 2 16 -1 19 -3 4 -6 -2 -5 -13z"/>
<path d="M582 345 c0 -16 2 -22 5 -12 2 9 2 23 0 30 -3 6 -5 -1 -5 -18z"/>
<path d="M1501 354 c0 -11 3 -14 6 -6 3 7 2 16 -1 19 -3 4 -6 -2 -5 -13z"/>
<path d="M1285 349 c-4 -6 -5 -12 -2 -15 2 -3 7 2 10 11 7 17 1 20 -8 4z"/>
<path d="M1441 344 c0 -11 3 -14 6 -6 3 7 2 16 -1 19 -3 4 -6 -2 -5 -13z"/>
<path d="M2582 355 c0 -5 6 -26 13 -45 7 -19 14 -28 14 -20 0 8 -6 29 -14 45
-7 17 -13 26 -13 20z"/>
<path d="M601 334 c0 -11 3 -14 6 -6 3 7 2 16 -1 19 -3 4 -6 -2 -5 -13z"/>
<path d="M1396 337 c3 -10 9 -15 12 -12 3 3 0 11 -7 18 -10 9 -11 8 -5 -6z"/>
<path d="M1521 334 c0 -11 3 -14 6 -6 3 7 2 16 -1 19 -3 4 -6 -2 -5 -13z"/>
<path d="M1543 315 c0 -22 2 -30 4 -17 2 12 2 30 0 40 -3 9 -5 -1 -4 -23z"/>
<path d="M1621 334 c0 -11 3 -14 6 -6 3 7 2 16 -1 19 -3 4 -6 -2 -5 -13z"/>
<path d="M2501 334 c0 -11 3 -14 6 -6 3 7 2 16 -1 19 -3 4 -6 -2 -5 -13z"/>
<path d="M2531 334 c0 -11 3 -14 6 -6 3 7 2 16 -1 19 -3 4 -6 -2 -5 -13z"/>
<path d="M2620 346 c0 -19 94 -322 103 -331 7 -7 8 -4 2 10 -4 11 -27 87 -51
169 -39 132 -54 175 -54 152z"/>
<path d="M712 255 c-2 -50 -5 -126 -7 -170 l-4 -80 10 60 c5 33 8 110 6 170
l-3 110 -2 -90z"/>
<path d="M772 310 c0 -19 2 -27 5 -17 2 9 2 25 0 35 -3 9 -5 1 -5 -18z"/>
<path d="M801 324 c0 -11 3 -14 6 -6 3 7 2 16 -1 19 -3 4 -6 -2 -5 -13z"/>
<path d="M877 292 c9 -29 19 -50 21 -47 5 5 -18 77 -29 89 -4 5 -1 -14 8 -42z"/>
<path d="M2561 324 c0 -11 3 -14 6 -6 3 7 2 16 -1 19 -3 4 -6 -2 -5 -13z"/>
<path d="M460 329 c0 -4 7 -22 15 -40 10 -25 15 -29 15 -14 1 20 2 20 9 0 7
-17 9 -16 15 9 4 16 5 31 1 34 -3 3 -5 -3 -5 -14 0 -16 -2 -17 -10 -4 -9 13
-10 13 -10 0 -1 -9 -6 -5 -15 10 -8 14 -14 22 -15 19z"/>
<path d="M2312 310 c0 -14 2 -19 5 -12 2 6 2 18 0 25 -3 6 -5 1 -5 -13z"/>
<path d="M2453 265 c0 -38 2 -53 4 -32 2 20 2 52 0 70 -2 17 -4 1 -4 -38z"/>
<path d="M531 304 c0 -11 3 -14 6 -6 3 7 2 16 -1 19 -3 4 -6 -2 -5 -13z"/>
<path d="M552 300 c0 -14 2 -19 5 -12 2 6 2 18 0 25 -3 6 -5 1 -5 -13z"/>
<path d="M743 285 c0 -22 2 -30 4 -17 2 12 2 30 0 40 -3 9 -5 -1 -4 -23z"/>
<path d="M843 295 c3 -16 13 -75 22 -130 20 -122 37 -185 29 -110 -7 66 -44
258 -51 265 -3 3 -3 -8 0 -25z"/>
<path d="M1682 300 c0 -14 2 -19 5 -12 2 6 2 18 0 25 -3 6 -5 1 -5 -13z"/>
<path d="M1711 304 c0 -11 3 -14 6 -6 3 7 2 16 -1 19 -3 4 -6 -2 -5 -13z"/>
<path d="M1842 315 c6 -6 278 -115 287 -115 14 1 -39 25 -156 71 -120 47 -142
55 -131 44z"/>
<path d="M2291 304 c0 -11 3 -14 6 -6 3 7 2 16 -1 19 -3 4 -6 -2 -5 -13z"/>
<path d="M2332 295 c0 -16 2 -22 5 -12 2 9 2 23 0 30 -3 6 -5 -1 -5 -18z"/>
<path d="M431 301 c-9 -6 -10 -11 -2 -15 6 -4 11 -2 11 4 0 6 5 8 12 4 7 -4 8
-3 4 4 -8 14 -7 14 -25 3z"/>
<path d="M585 220 c-9 -51 -14 -94 -12 -96 2 -3 12 37 21 87 9 50 15 93 13 96
-3 2 -12 -37 -22 -87z"/>
<path d="M1492 285 c0 -16 2 -22 5 -12 2 9 2 23 0 30 -3 6 -5 -1 -5 -18z"/>
<path d="M1824 295 c6 -38 80 -284 84 -281 1 2 -4 30 -12 62 -19 69 -78 248
-72 219z"/>
<path d="M2352 280 c0 -19 2 -27 5 -17 2 9 2 25 0 35 -3 9 -5 1 -5 -18z"/>
<path d="M2794 293 c43 -23 96 -44 96 -38 0 6 -108 55 -119 55 -3 -1 7 -8 23
-17z"/>
<path d="M572 280 c0 -14 2 -19 5 -12 2 6 2 18 0 25 -3 6 -5 1 -5 -13z"/>
<path d="M623 265 c0 -22 2 -30 4 -17 2 12 2 30 0 40 -3 9 -5 -1 -4 -23z"/>
<path d="M1782 295 c0 -5 6 -26 13 -45 7 -19 14 -28 14 -20 0 8 -6 29 -14 45
-7 17 -13 26 -13 20z"/>
<path d="M2271 284 c0 -11 3 -14 6 -6 3 7 2 16 -1 19 -3 4 -6 -2 -5 -13z"/>
<path d="M2513 265 c0 -22 2 -30 4 -17 2 12 2 30 0 40 -3 9 -5 -1 -4 -23z"/>
<path d="M2542 280 c0 -14 2 -19 5 -12 2 6 2 18 0 25 -3 6 -5 1 -5 -13z"/>
<path d="M810 283 c1 -38 31 -257 36 -262 3 -3 3 19 0 49 -16 132 -28 220 -32
220 -2 0 -4 -3 -4 -7z"/>
<path d="M2483 245 c0 -27 2 -38 4 -22 2 15 2 37 0 50 -2 12 -4 0 -4 -28z"/>
<path d="M421 260 c14 -31 19 -36 19 -24 0 6 -7 19 -16 30 -14 18 -14 18 -3
-6z"/>
<path d="M521 264 c0 -11 3 -14 6 -6 3 7 2 16 -1 19 -3 4 -6 -2 -5 -13z"/>
<path d="M1722 260 c0 -14 4 -36 8 -50 6 -20 8 -21 8 -5 0 11 -4 34 -8 50 -7
27 -8 27 -8 5z"/>
<path d="M2211 260 c14 -31 19 -36 19 -24 0 6 -7 19 -16 30 -14 18 -14 18 -3
-6z"/>
<path d="M2230 275 c0 -5 5 -17 10 -25 5 -8 10 -10 10 -5 0 6 -5 17 -10 25 -5
8 -10 11 -10 5z"/>
<path d="M2721 275 c3 -2 23 -8 45 -13 21 -4 39 -13 39 -19 0 -6 3 -15 8 -19
4 -4 7 0 7 9 0 22 -39 47 -74 47 -16 0 -27 -2 -25 -5z"/>
<path d="M518 162 c-41 -158 -41 -159 -30 -142 12 20 64 228 60 240 -2 6 -15
-38 -30 -98z"/>
<path d="M1145 256 c17 -7 41 -16 55 -20 20 -5 19 -3 -5 8 -16 7 -41 16 -55
20 -20 5 -19 3 5 -8z"/>
<path d="M1356 257 c3 -10 9 -15 12 -12 3 3 0 11 -7 18 -10 9 -11 8 -5 -6z"/>
<path d="M788 140 c2 -69 6 -127 8 -129 7 -8 2 164 -6 209 -4 28 -6 -3 -2 -80z"/>
<path d="M1692 235 c0 -16 2 -22 5 -12 2 9 2 23 0 30 -3 6 -5 -1 -5 -18z"/>
<path d="M2301 244 c0 -11 3 -14 6 -6 3 7 2 16 -1 19 -3 4 -6 -2 -5 -13z"/>
<path d="M2582 240 c0 -14 2 -19 5 -12 2 6 2 18 0 25 -3 6 -5 1 -5 -13z"/>
<path d="M380 241 c0 -6 4 -13 10 -16 6 -3 7 1 4 9 -7 18 -14 21 -14 7z"/>
<path d="M542 145 c-12 -58 -25 -113 -28 -122 -5 -15 -4 -15 4 -3 12 19 55
205 51 219 -2 6 -14 -37 -27 -94z"/>
<path d="M1030 240 c0 -6 13 -10 29 -10 42 0 50 -20 9 -21 l-33 -2 35 -6 c29
-5 36 -3 42 14 6 19 6 19 13 -2 4 -13 11 -23 16 -23 13 0 11 13 -3 33 -14 19
-108 33 -108 17z"/>
<path d="M1340 245 c0 -5 5 -17 10 -25 5 -8 10 -10 10 -5 0 6 -5 17 -10 25 -5
8 -10 11 -10 5z"/>
<path d="M1482 225 c0 -16 2 -22 5 -12 2 9 2 23 0 30 -3 6 -5 -1 -5 -18z"/>
<path d="M1511 234 c0 -11 3 -14 6 -6 3 7 2 16 -1 19 -3 4 -6 -2 -5 -13z"/>
<path d="M1762 240 c0 -8 4 -26 8 -40 6 -20 8 -21 8 -5 0 11 -3 29 -8 40 -5
12 -8 14 -8 5z"/>
<path d="M2365 195 c-3 -31 -5 -59 -2 -61 3 -3 8 20 12 51 3 31 5 59 2 61 -3
3 -8 -20 -12 -51z"/>
<path d="M2730 239 c0 -5 8 -9 18 -9 13 0 14 -2 3 -9 -8 -5 -11 -16 -7 -28 5
-15 19 -22 53 -27 25 -3 49 -4 51 -1 3 3 -4 5 -16 5 -13 0 -22 6 -22 14 0 8
-10 22 -22 30 -12 9 -17 16 -10 16 27 0 10 15 -18 16 -17 1 -30 -3 -30 -7z
m68 -46 c5 -18 -23 -16 -39 3 -11 14 -10 15 11 12 13 -1 25 -9 28 -15z"/>
<path d="M410 235 c0 -5 5 -17 10 -25 5 -8 10 -10 10 -5 0 6 -5 17 -10 25 -5
8 -10 11 -10 5z"/>
<path d="M511 224 c0 -11 3 -14 6 -6 3 7 2 16 -1 19 -3 4 -6 -2 -5 -13z"/>
<path d="M646 219 c-11 -50 -26 -193 -21 -197 3 -3 5 -1 5 4 1 5 7 54 14 109
13 93 14 138 2 84z"/>
<path d="M745 123 c-1 -78 2 -104 7 -78 8 49 8 142 0 173 -4 13 -7 -30 -7 -95z"/>
<path d="M2621 224 c0 -11 3 -14 6 -6 3 7 2 16 -1 19 -3 4 -6 -2 -5 -13z"/>
<path d="M47 217 c-3 -9 6 -13 34 -12 41 0 40 9 -2 19 -18 4 -29 1 -32 -7z"/>
<path d="M150 213 c-14 -7 -19 -13 -12 -13 18 0 15 -38 -5 -49 -10 -6 -13 -10
-8 -10 15 0 46 25 39 32 -3 3 0 15 6 27 15 27 11 30 -20 13z"/>
<path d="M907 195 c9 -61 24 -99 17 -45 -4 25 -10 54 -15 65 -6 13 -6 6 -2
-20z"/>
<path d="M1935 220 c3 -6 19 -10 36 -10 37 0 38 -17 2 -23 -23 -3 -21 -4 9 -6
32 -1 36 2 31 17 -6 15 -5 15 10 3 9 -7 14 -17 11 -22 -3 -5 0 -9 5 -9 15 0
14 25 -2 39 -18 14 -110 24 -102 11z"/>
<path d="M2552 210 c0 -14 2 -19 5 -12 2 6 2 18 0 25 -3 6 -5 1 -5 -13z"/>
<path d="M0 203 c0 -10 4 -14 8 -8 4 6 11 13 16 18 5 4 2 7 -7 7 -10 0 -17 -8
-17 -17z"/>
<path d="M379 203 c14 -27 14 -36 1 -28 -6 3 -7 -1 -3 -10 5 -13 7 -14 14 -3
7 10 9 10 9 -2 0 -13 1 -13 10 0 5 8 10 20 10 25 0 6 -5 3 -10 -5 -5 -8 -10
-10 -10 -4 0 5 -7 19 -16 30 -15 18 -15 18 -5 -3z"/>
<path d="M461 213 c-1 -6 -4 -20 -7 -30 -5 -17 -5 -17 6 0 6 10 9 23 6 30 -3
9 -5 9 -5 0z"/>
<path d="M2231 204 c0 -11 3 -14 6 -6 3 7 2 16 -1 19 -3 4 -6 -2 -5 -13z"/>
<path d="M2251 204 c0 -11 3 -14 6 -6 3 7 2 16 -1 19 -3 4 -6 -2 -5 -13z"/>
<path d="M2342 195 c0 -16 2 -22 5 -12 2 9 2 23 0 30 -3 6 -5 -1 -5 -18z"/>
<path d="M2523 175 c0 -27 2 -38 4 -22 2 15 2 37 0 50 -2 12 -4 0 -4 -28z"/>
<path d="M467 158 c-9 -29 -15 -54 -13 -56 2 -2 12 20 21 48 9 28 15 53 13 55
-2 3 -12 -19 -21 -47z"/>
<path d="M612 185 c0 -16 2 -22 5 -12 2 9 2 23 0 30 -3 6 -5 -1 -5 -18z"/>
<path d="M1532 180 c0 -19 2 -27 5 -17 2 9 2 25 0 35 -3 9 -5 1 -5 -18z"/>
<path d="M1663 140 c0 -41 2 -58 4 -37 2 20 2 54 0 75 -2 20 -4 3 -4 -38z"/>
<path d="M2271 194 c0 -11 3 -14 6 -6 3 7 2 16 -1 19 -3 4 -6 -2 -5 -13z"/>
<path d="M2291 194 c0 -11 3 -14 6 -6 3 7 2 16 -1 19 -3 4 -6 -2 -5 -13z"/>
<path d="M2393 150 c0 -36 2 -50 4 -32 2 17 2 47 0 65 -2 17 -4 3 -4 -33z"/>
<path d="M2423 135 c0 -44 2 -61 4 -37 2 23 2 59 0 80 -2 20 -4 1 -4 -43z"/>
<path d="M2597 165 c3 -27 7 -52 9 -54 7 -8 2 54 -6 79 -6 17 -7 9 -3 -25z"/>
<path d="M2980 190 c0 -11 5 -20 10 -20 6 0 10 9 10 20 0 11 -4 20 -10 20 -5
0 -10 -9 -10 -20z"/>
<path d="M673 150 c0 -30 2 -43 4 -28 2 16 2 40 0 56 -2 15 -4 2 -4 -28z"/>
<path d="M1401 184 c0 -11 3 -14 6 -6 3 7 2 16 -1 19 -3 4 -6 -2 -5 -13z"/>
<path d="M1502 175 c0 -16 2 -22 5 -12 2 9 2 23 0 30 -3 6 -5 -1 -5 -18z"/>
<path d="M1562 175 c0 -16 2 -22 5 -12 2 9 2 23 0 30 -3 6 -5 -1 -5 -18z"/>
<path d="M2631 190 c0 -8 6 -40 14 -70 7 -30 14 -46 14 -35 0 11 -6 43 -13 70
-8 28 -14 43 -15 35z"/>
<path d="M1055 180 c-3 -6 -3 -19 0 -30 5 -15 15 -20 45 -20 21 0 45 -3 54 -6
9 -3 16 -1 16 5 0 6 -9 11 -20 11 -11 0 -20 7 -20 15 0 26 -61 47 -75 25z m46
-10 c24 -14 25 -30 0 -30 -21 0 -45 23 -34 33 8 9 11 9 34 -3z"/>
<path d="M2312 170 c0 -14 2 -19 5 -12 2 6 2 18 0 25 -3 6 -5 1 -5 -13z"/>
<path d="M2494 100 c0 -52 1 -74 3 -47 2 26 2 68 0 95 -2 26 -3 4 -3 -48z"/>
<path d="M1471 164 c0 -11 3 -14 6 -6 3 7 2 16 -1 19 -3 4 -6 -2 -5 -13z"/>
<path d="M1620 161 c0 -26 15 -35 17 -11 1 11 -2 22 -8 25 -5 4 -9 -3 -9 -14z"/>
<path d="M1703 125 c0 -33 2 -45 4 -27 2 18 2 45 0 60 -2 15 -4 0 -4 -33z"/>
<path d="M2454 95 c0 -50 1 -71 3 -48 2 23 2 64 0 90 -2 26 -3 8 -3 -42z"/>
<path d="M2563 145 c0 -22 2 -30 4 -17 2 12 2 30 0 40 -3 9 -5 -1 -4 -23z"/>
<path d="M50 151 c0 -15 5 -19 22 -16 12 3 26 10 32 16 8 9 7 10 -6 6 -10 -3
-20 -2 -23 3 -10 17 -25 11 -25 -9z"/>
<path d="M491 154 c0 -11 3 -14 6 -6 3 7 2 16 -1 19 -3 4 -6 -2 -5 -13z"/>
<path d="M1782 150 c0 -14 2 -19 5 -12 2 6 2 18 0 25 -3 6 -5 1 -5 -13z"/>
<path d="M1957 164 c-7 -7 13 -54 23 -54 4 0 5 -11 2 -25 -2 -14 0 -25 7 -25
5 0 8 7 5 15 -4 8 -1 15 4 15 6 0 14 -9 17 -21 4 -12 14 -19 23 -17 25 5 20
31 -8 46 -25 13 -25 13 8 9 17 -2 32 0 32 5 0 4 -9 8 -20 8 -11 0 -20 7 -20
15 0 23 -56 46 -73 29z m47 -10 c15 -6 23 -34 10 -34 -13 0 -44 21 -44 30 0
11 11 13 34 4z m36 -85 c0 -6 -4 -7 -10 -4 -5 3 -10 11 -10 16 0 6 5 7 10 4 6
-3 10 -11 10 -16z"/>
<path d="M1 144 c0 -11 3 -14 6 -6 3 7 2 16 -1 19 -3 4 -6 -2 -5 -13z"/>
<path d="M396 89 c-15 -39 -25 -73 -23 -76 2 -2 16 29 31 69 14 39 24 73 22
75 -2 2 -15 -29 -30 -68z"/>
<path d="M441 153 c-1 -6 -4 -20 -7 -30 -5 -17 -5 -17 6 0 6 10 9 23 6 30 -3
9 -5 9 -5 0z"/>
<path d="M1441 144 c0 -11 3 -14 6 -6 3 7 2 16 -1 19 -3 4 -6 -2 -5 -13z"/>
<path d="M2765 150 c-3 -5 -1 -18 4 -27 9 -16 10 -15 11 7 l1 25 15 -27 c15
-29 28 -35 39 -18 7 12 -30 50 -49 50 -8 0 -18 -4 -21 -10z m55 -25 c0 -8 -2
-15 -4 -15 -2 0 -6 7 -10 15 -3 8 -1 15 4 15 6 0 10 -7 10 -15z"/>
<path d="M593 85 c-7 -38 -10 -71 -8 -73 6 -6 27 103 24 123 -2 11 -10 -12
-16 -50z"/>
<path d="M1406 119 c-8 -42 0 -50 9 -9 4 17 5 34 2 36 -2 3 -7 -10 -11 -27z"/>
<path d="M1747 90 c3 -36 7 -67 9 -69 7 -8 2 73 -6 104 -5 19 -6 6 -3 -35z"/>
<path d="M2211 134 c0 -11 3 -14 6 -6 3 7 2 16 -1 19 -3 4 -6 -2 -5 -13z"/>
<path d="M2332 125 c0 -16 2 -22 5 -12 2 9 2 23 0 30 -3 6 -5 -1 -5 -18z"/>
<path d="M1483 80 c-5 -34 -6 -57 -2 -53 8 9 23 113 16 113 -2 0 -9 -27 -14
-60z"/>
<path d="M315 106 c10 -14 19 -26 22 -26 7 0 -17 39 -28 46 -6 3 -3 -5 6 -20z"/>
<path d="M467 73 c-9 -31 -15 -58 -13 -61 2 -2 12 22 21 53 9 32 14 59 12 61
-2 3 -11 -21 -20 -53z"/>
<path d="M1522 110 c0 -14 2 -19 5 -12 2 6 2 18 0 25 -3 6 -5 1 -5 -13z"/>
<path d="M1831 114 c0 -11 3 -14 6 -6 3 7 2 16 -1 19 -3 4 -6 -2 -5 -13z"/>
<path d="M2251 114 c0 -11 3 -14 6 -6 3 7 2 16 -1 19 -3 4 -6 -2 -5 -13z"/>
<path d="M2296 94 c-4 -20 -5 -38 -3 -40 3 -3 8 11 11 32 4 20 5 38 3 40 -3 3
-8 -11 -11 -32z"/>
<path d="M280 116 c0 -2 8 -10 18 -17 15 -13 16 -12 3 4 -13 16 -21 21 -21 13z"/>
<path d="M1074 105 c-4 -9 -1 -22 6 -28 9 -9 11 -8 8 8 -2 12 3 21 16 23 20 4
44 -14 32 -25 -4 -4 -12 -1 -17 7 -8 12 -10 10 -6 -7 3 -16 0 -23 -9 -23 -8 0
-14 -4 -14 -10 0 -6 25 -10 58 -9 l57 1 -40 12 c-25 8 -35 14 -25 18 12 4 13
10 4 24 -15 25 -62 31 -70 9z"/>
<path d="M1552 95 c0 -16 2 -22 5 -12 2 9 2 23 0 30 -3 6 -5 -1 -5 -18z"/>
<path d="M1792 90 c0 -19 2 -27 5 -17 2 9 2 25 0 35 -3 9 -5 1 -5 -18z"/>
<path d="M2533 80 c0 -25 2 -35 4 -22 2 12 2 32 0 45 -2 12 -4 2 -4 -23z"/>
<path d="M0 93 c0 -13 5 -23 10 -23 13 0 13 11 0 30 -8 12 -10 11 -10 -7z"/>
<path d="M342 58 c-14 -32 -16 -46 -7 -34 11 14 15 16 15 5 0 -12 2 -12 10 1
5 8 10 20 10 25 0 6 -5 3 -10 -5 -9 -13 -10 -13 -10 0 0 8 5 22 10 30 8 12 10
12 10 1 0 -8 3 -12 6 -8 3 3 2 13 -3 22 -8 13 -14 6 -31 -37z"/>
<path d="M556 69 c-9 -57 -2 -59 11 -4 6 25 7 45 3 45 -4 0 -10 -19 -14 -41z"/>
<path d="M2271 94 c0 -11 3 -14 6 -6 3 7 2 16 -1 19 -3 4 -6 -2 -5 -13z"/>
<path d="M70 92 c0 -17 31 -23 77 -16 24 3 43 8 41 9 -9 10 -118 16 -118 7z"/>
<path d="M266 92 c-3 -5 1 -9 9 -9 8 0 12 4 9 9 -3 4 -7 8 -9 8 -2 0 -6 -4 -9
-8z"/>
<path d="M416 85 c-3 -9 -6 -22 -5 -28 0 -7 5 -1 10 12 5 13 8 26 5 28 -2 2
-6 -3 -10 -12z"/>
<path d="M932 80 c0 -14 4 -36 8 -50 6 -20 8 -21 8 -5 0 11 -4 34 -8 50 -7 27
-8 27 -8 5z"/>
<path d="M2610 76 c0 -14 4 -27 8 -30 5 -3 6 8 4 25 -5 35 -12 38 -12 5z"/>
<path d="M2785 92 c6 -5 30 -12 54 -15 57 -7 40 8 -19 17 -28 4 -41 3 -35 -2z"/>
<path d="M436 66 c-3 -13 -9 -32 -12 -43 -5 -12 -4 -15 3 -8 11 10 28 75 20
75 -3 0 -8 -11 -11 -24z"/>
<path d="M667 83 c-4 -3 -6 -22 -6 -42 l1 -36 8 40 c8 42 8 49 -3 38z"/>
<path d="M2322 65 c0 -16 2 -22 5 -12 2 9 2 23 0 30 -3 6 -5 -1 -5 -18z"/>
<path d="M2573 50 c0 -25 2 -35 4 -22 2 12 2 32 0 45 -2 12 -4 2 -4 -23z"/>
<path d="M1451 64 c0 -11 3 -14 6 -6 3 7 2 16 -1 19 -3 4 -6 -2 -5 -13z"/>
<path d="M2349 52 c-3 -20 -2 -29 4 -23 5 5 7 19 5 32 -3 20 -5 19 -9 -9z"/>
<path d="M2382 50 c0 -19 2 -27 5 -17 2 9 2 25 0 35 -3 9 -5 1 -5 -18z"/>
<path d="M2760 73 c0 -12 99 -67 107 -59 3 3 -6 11 -21 17 -24 11 -24 13 -8
25 15 12 13 13 -15 8 -20 -4 -39 -2 -48 6 -8 7 -15 8 -15 3z"/>
<path d="M1391 54 c0 -11 3 -14 6 -6 3 7 2 16 -1 19 -3 4 -6 -2 -5 -13z"/>
<path d="M1582 40 c0 -19 2 -27 5 -17 2 9 2 25 0 35 -3 9 -5 1 -5 -18z"/>
<path d="M1622 40 c0 -19 2 -27 5 -17 2 9 2 25 0 35 -3 9 -5 1 -5 -18z"/>
<path d="M2662 40 c0 -14 2 -19 5 -12 2 6 2 18 0 25 -3 6 -5 1 -5 -13z"/>
<path d="M1802 30 c0 -14 2 -19 5 -12 2 6 2 18 0 25 -3 6 -5 1 -5 -13z"/>
<path d="M1990 39 c0 -5 16 -9 35 -9 19 0 35 -4 35 -9 0 -5 9 -7 21 -4 11 3
17 9 12 13 -12 11 -103 19 -103 9z"/>
<path d="M290 31 c0 -6 -10 -8 -21 -6 -12 3 -19 1 -15 -2 13 -14 54 -10 49 4
-6 15 -13 17 -13 4z"/>
<path d="M396 23 c-6 -14 -5 -15 5 -6 7 7 10 15 7 18 -3 3 -9 -2 -12 -12z"/>
<path d="M1060 31 c0 -21 74 -29 100 -10 11 8 5 9 -22 4 -21 -3 -47 -1 -58 5
-11 6 -20 7 -20 1z"/>
<path d="M1411 24 c0 -11 3 -14 6 -6 3 7 2 16 -1 19 -3 4 -6 -2 -5 -13z"/>
<path d="M2285 29 c-4 -6 -5 -12 -2 -15 2 -3 7 2 10 11 7 17 1 20 -8 4z"/>
<path d="M1970 20 c0 -5 5 -10 11 -10 5 0 7 5 4 10 -3 6 -8 10 -11 10 -2 0 -4
-4 -4 -10z"/>
</g>
</svg>
